<svg width="24" height="24" viewBox="0 0 24 24" fill="none" xmlns="http://www.w3.org/2000/svg">
<path d="M12 7.359C12.3883 7.359 12.7031 7.04418 12.7031 6.65587V3.45459C12.7031 3.06628 12.3883 2.75146 12 2.75146C11.6117 2.75146 11.2969 3.06628 11.2969 3.45459V6.65587C11.2969 7.04418 11.6117 7.359 12 7.359Z" fill="#393C47"/>
<path d="M23.297 14.0483H20.0957C19.7074 14.0483 19.3926 14.3632 19.3926 14.7515C19.3926 15.1398 19.7074 15.4546 20.0957 15.4546H23.297C23.6853 15.4546 24.0001 15.1398 24.0001 14.7515C24.0001 14.3632 23.6853 14.0483 23.297 14.0483Z" fill="#393C47"/>
<path d="M4.60753 14.7515C4.60753 14.3632 4.29272 14.0483 3.90441 14.0483H0.703125C0.314812 14.0483 0 14.3632 0 14.7515C0 15.1398 0.314812 15.4546 0.703125 15.4546H3.90441C4.29272 15.4546 4.60753 15.1398 4.60753 14.7515Z" fill="#393C47"/>
<path d="M18.5591 8.93498C18.739 8.93498 18.919 8.86631 19.0563 8.72901L20.7837 7.00157C21.0583 6.72703 21.0583 6.28181 20.7837 6.00721C20.5092 5.73262 20.064 5.73262 19.7894 6.00721L18.0619 7.73465C17.7873 8.0092 17.7873 8.45442 18.0619 8.72901C18.1992 8.86631 18.3792 8.93498 18.5591 8.93498Z" fill="#393C47"/>
<path d="M4.94368 8.72901C5.08098 8.86631 5.26093 8.93498 5.44084 8.93498C5.62075 8.93498 5.80075 8.86636 5.938 8.72901C6.21259 8.45442 6.21259 8.00925 5.938 7.73465L4.21056 6.00721C3.93601 5.73262 3.49079 5.73262 3.2162 6.00721C2.94161 6.28181 2.94161 6.72698 3.2162 7.00157L4.94368 8.72901Z" fill="#393C47"/>
<path d="M20.6781 17.0975H17.5985C17.9082 16.3585 18.0702 15.5621 18.0702 14.7515C18.0702 11.4043 15.3471 8.68115 11.9999 8.68115C8.65278 8.68115 5.92962 11.4043 5.92962 14.7515C5.92962 15.5605 6.0912 16.3583 6.40081 17.0975H3.32178C2.93346 17.0975 2.61865 17.4123 2.61865 17.8006C2.61865 18.189 2.93346 18.5038 3.32178 18.5038H20.6781C21.0664 18.5038 21.3812 18.189 21.3812 17.8006C21.3812 17.4123 21.0664 17.0975 20.6781 17.0975ZM7.33587 14.7515C7.33587 12.1797 9.42818 10.0874 11.9999 10.0874C14.5717 10.0874 16.6639 12.1797 16.6639 14.7515C16.6639 15.5792 16.4452 16.3874 16.031 17.0975H7.96873C7.55487 16.3882 7.33587 15.5777 7.33587 14.7515Z" fill="#393C47"/>
<path d="M16.417 19.8428H7.58301C7.1947 19.8428 6.87988 20.1576 6.87988 20.5459C6.87988 20.9342 7.1947 21.249 7.58301 21.249H16.4171C16.8054 21.249 17.1202 20.9342 17.1202 20.5459C17.1202 20.1576 16.8054 19.8428 16.417 19.8428Z" fill="#393C47"/>
</svg>
