<svg width="24" height="24" viewBox="0 0 24 24" fill="none" xmlns="http://www.w3.org/2000/svg">
<path d="M2 20.9991V19.3991C2.6 19.3491 3.07917 19.1741 3.4375 18.8741C3.79583 18.5741 4.35833 18.4241 5.125 18.4241C5.89167 18.4241 6.51667 18.6033 7 18.9616C7.48333 19.32 8.04167 19.4991 8.675 19.4991C9.30833 19.4991 9.82917 19.32 10.2375 18.9616C10.6458 18.6033 11.2333 18.4241 12 18.4241C12.7667 18.4241 13.3917 18.6033 13.875 18.9616C14.3583 19.32 14.9167 19.4991 15.55 19.4991C16.1833 19.4991 16.7083 19.32 17.125 18.9616C17.5417 18.6033 18.1333 18.4241 18.9 18.4241C19.6667 18.4241 20.225 18.5741 20.575 18.8741C20.925 19.1741 21.4 19.3491 22 19.3991V20.9991C21.4167 20.9491 20.9125 20.7616 20.4875 20.4366C20.0625 20.1116 19.5333 19.9491 18.9 19.9491C18.2667 19.9491 17.725 20.1241 17.275 20.4741C16.825 20.8241 16.25 20.9991 15.55 20.9991C14.85 20.9991 14.2417 20.8241 13.725 20.4741C13.2083 20.1241 12.6333 19.9491 12 19.9491C11.3667 19.9491 10.8125 20.1241 10.3375 20.4741C9.8625 20.8241 9.275 20.9991 8.575 20.9991C7.875 20.9991 7.28333 20.8241 6.8 20.4741C6.31667 20.1241 5.75833 19.9491 5.125 19.9491C4.49167 19.9491 3.95833 20.1116 3.525 20.4366C3.09167 20.7616 2.58333 20.9491 2 20.9991ZM2 16.2991V14.7991C2.6 14.7491 3.07917 14.5783 3.4375 14.2866C3.79583 13.995 4.35833 13.8491 5.125 13.8491C5.89167 13.8491 6.5 14.0075 6.95 14.3241C7.4 14.6408 7.94167 14.7991 8.575 14.7991C9.20833 14.7991 9.74583 14.6408 10.1875 14.3241C10.6292 14.0075 11.2333 13.8491 12 13.8491C12.7667 13.8491 13.375 14.0075 13.825 14.3241C14.275 14.6408 14.8167 14.7991 15.45 14.7991C16.0833 14.7991 16.625 14.6408 17.075 14.3241C17.525 14.0075 18.1333 13.8491 18.9 13.8491C19.6667 13.8491 20.225 13.995 20.575 14.2866C20.925 14.5783 21.4 14.7491 22 14.7991V16.2991C21.4167 16.2491 20.9125 16.0616 20.4875 15.7366C20.0625 15.4116 19.5333 15.2491 18.9 15.2491C18.2667 15.2491 17.725 15.4241 17.275 15.7741C16.825 16.1241 16.25 16.2991 15.55 16.2991C14.85 16.2991 14.2417 16.1241 13.725 15.7741C13.2083 15.4241 12.6333 15.2491 12 15.2491C11.3667 15.2491 10.8292 15.4241 10.3875 15.7741C9.94583 16.1241 9.375 16.2991 8.675 16.2991C7.975 16.2991 7.36667 16.1241 6.85 15.7741C6.33333 15.4241 5.75833 15.2491 5.125 15.2491C4.49167 15.2491 3.95833 15.4116 3.525 15.7366C3.09167 16.0616 2.58333 16.2491 2 16.2991ZM7.2 11.0991L10.575 7.72412L9.225 6.37412C8.65833 5.80745 8.08333 5.42829 7.5 5.23662C6.91667 5.04495 6.175 4.94912 5.275 4.94912V2.97412C6.475 2.97412 7.4625 3.12412 8.2375 3.42412C9.0125 3.72412 9.76667 4.24079 10.5 4.97412L16.825 11.2991C16.6417 11.4491 16.4292 11.5575 16.1875 11.6241C15.9458 11.6908 15.7 11.7241 15.45 11.7241C14.8167 11.7241 14.2708 11.5491 13.8125 11.1991C13.3542 10.8491 12.75 10.6741 12 10.6741C11.25 10.6741 10.65 10.8491 10.2 11.1991C9.75 11.5491 9.20833 11.7241 8.575 11.7241C8.275 11.7241 8.00417 11.6658 7.7625 11.5491C7.52083 11.4325 7.33333 11.2825 7.2 11.0991ZM16.7 3.07412C17.3667 3.07412 17.9292 3.30329 18.3875 3.76162C18.8458 4.21995 19.075 4.78245 19.075 5.44912C19.075 6.11579 18.8458 6.67829 18.3875 7.13662C17.9292 7.59495 17.3667 7.82412 16.7 7.82412C16.0333 7.82412 15.4708 7.59495 15.0125 7.13662C14.5542 6.67829 14.325 6.11579 14.325 5.44912C14.325 4.78245 14.5542 4.21995 15.0125 3.76162C15.4708 3.30329 16.0333 3.07412 16.7 3.07412Z" fill="#393C47"/>
</svg>
