<svg width="24" height="24" viewBox="0 0 24 24" fill="none" xmlns="http://www.w3.org/2000/svg">
<path d="M7.4 6.99951H4.6C4.44087 6.99951 4.28826 7.06273 4.17574 7.17525C4.06321 7.28777 4 7.44038 4 7.59951V16.3995C4 16.4783 4.01552 16.5563 4.04567 16.6291C4.07583 16.7019 4.12002 16.7681 4.17574 16.8238C4.23145 16.8795 4.29759 16.9237 4.37039 16.9538C4.44319 16.984 4.52121 16.9995 4.6 16.9995H7.4C7.47879 16.9995 7.55681 16.984 7.62961 16.9538C7.70241 16.9237 7.76855 16.8795 7.82426 16.8238C7.87998 16.7681 7.92417 16.7019 7.95433 16.6291C7.98448 16.5563 8 16.4783 8 16.3995V7.59951C8 7.44038 7.93679 7.28777 7.82426 7.17525C7.71174 7.06273 7.55913 6.99951 7.4 6.99951ZM19.4 6.99951H16.6C16.4409 6.99951 16.2883 7.06273 16.1757 7.17525C16.0632 7.28777 16 7.44038 16 7.59951V16.3995C16 16.4783 16.0155 16.5563 16.0457 16.6291C16.0758 16.7019 16.12 16.7681 16.1757 16.8238C16.2315 16.8795 16.2976 16.9237 16.3704 16.9538C16.4432 16.984 16.5212 16.9995 16.6 16.9995H19.4C19.4788 16.9995 19.5568 16.984 19.6296 16.9538C19.7024 16.9237 19.7685 16.8795 19.8243 16.8238C19.88 16.7681 19.9242 16.7019 19.9543 16.6291C19.9845 16.5563 20 16.4783 20 16.3995V7.59951C20 7.44038 19.9368 7.28777 19.8243 7.17525C19.7117 7.06273 19.5591 6.99951 19.4 6.99951Z" stroke="#393C47" stroke-width="1.5" stroke-linecap="round" stroke-linejoin="round"/>
<path d="M8 11.999H16M1 14.399V9.59902C1 9.43989 1.06321 9.28728 1.17574 9.17476C1.28826 9.06224 1.44087 8.99902 1.6 8.99902H3.4C3.55913 8.99902 3.71174 9.06224 3.82426 9.17476C3.93679 9.28728 4 9.43989 4 9.59902V14.399C4 14.5582 3.93679 14.7108 3.82426 14.8233C3.71174 14.9358 3.55913 14.999 3.4 14.999H1.6C1.44087 14.999 1.28826 14.9358 1.17574 14.8233C1.06321 14.7108 1 14.5582 1 14.399ZM23 14.399V9.59902C23 9.43989 22.9368 9.28728 22.8243 9.17476C22.7117 9.06224 22.5591 8.99902 22.4 8.99902H20.6C20.4409 8.99902 20.2883 9.06224 20.1757 9.17476C20.0632 9.28728 20 9.43989 20 9.59902V14.399C20 14.5582 20.0632 14.7108 20.1757 14.8233C20.2883 14.9358 20.4409 14.999 20.6 14.999H22.4C22.5591 14.999 22.7117 14.9358 22.8243 14.8233C22.9368 14.7108 23 14.5582 23 14.399Z" stroke="#393C47" stroke-width="1.5" stroke-linecap="round" stroke-linejoin="round"/>
</svg>
